<svg id="visual" viewBox="0 0 1200 200" width="1200" height="200" xmlns="http://www.w3.org/2000/svg" xmlns:xlink="http://www.w3.org/1999/xlink" version="1.1"><path d="M0 72L28.5 71.2C57 70.3 114 68.7 171.2 67.2C228.3 65.7 285.7 64.3 342.8 69C400 73.7 457 84.3 514.2 87C571.3 89.7 628.7 84.3 685.8 84.2C743 84 800 89 857.2 86.5C914.3 84 971.7 74 1028.8 72.5C1086 71 1143 78 1171.5 81.5L1200 85L1200 201L1171.5 201C1143 201 1086 201 1028.8 201C971.7 201 914.3 201 857.2 201C800 201 743 201 685.8 201C628.7 201 571.3 201 514.2 201C457 201 400 201 342.8 201C285.7 201 228.3 201 171.2 201C114 201 57 201 28.5 201L0 201Z" fill="#fa7268"></path><path d="M0 100L28.5 104.3C57 108.7 114 117.3 171.2 114.8C228.3 112.3 285.7 98.7 342.8 90.3C400 82 457 79 514.2 85.8C571.3 92.7 628.7 109.3 685.8 113.7C743 118 800 110 857.2 103.2C914.3 96.3 971.7 90.7 1028.8 88.2C1086 85.7 1143 86.3 1171.5 86.7L1200 87L1200 201L1171.5 201C1143 201 1086 201 1028.8 201C971.7 201 914.3 201 857.2 201C800 201 743 201 685.8 201C628.7 201 571.3 201 514.2 201C457 201 400 201 342.8 201C285.7 201 228.3 201 171.2 201C114 201 57 201 28.5 201L0 201Z" fill="#ef5f67"></path><path d="M0 109L28.5 111.7C57 114.3 114 119.7 171.2 121.7C228.3 123.7 285.7 122.3 342.8 119.3C400 116.3 457 111.7 514.2 114.5C571.3 117.3 628.7 127.7 685.8 131.5C743 135.3 800 132.7 857.2 133.3C914.3 134 971.7 138 1028.8 137.3C1086 136.7 1143 131.3 1171.5 128.7L1200 126L1200 201L1171.5 201C1143 201 1086 201 1028.8 201C971.7 201 914.3 201 857.2 201C800 201 743 201 685.8 201C628.7 201 571.3 201 514.2 201C457 201 400 201 342.8 201C285.7 201 228.3 201 171.2 201C114 201 57 201 28.5 201L0 201Z" fill="#e34c67"></path><path d="M0 132L28.5 133.8C57 135.7 114 139.3 171.2 143.3C228.3 147.3 285.7 151.7 342.8 150.2C400 148.7 457 141.3 514.2 141.3C571.3 141.3 628.7 148.7 685.8 151.8C743 155 800 154 857.2 149.3C914.3 144.7 971.7 136.3 1028.8 135.5C1086 134.7 1143 141.3 1171.5 144.7L1200 148L1200 201L1171.5 201C1143 201 1086 201 1028.8 201C971.7 201 914.3 201 857.2 201C800 201 743 201 685.8 201C628.7 201 571.3 201 514.2 201C457 201 400 201 342.8 201C285.7 201 228.3 201 171.2 201C114 201 57 201 28.5 201L0 201Z" fill="#d53867"></path><path d="M0 157L28.5 158C57 159 114 161 171.2 161.7C228.3 162.3 285.7 161.7 342.8 164.5C400 167.3 457 173.7 514.2 175.5C571.3 177.3 628.7 174.7 685.8 170.7C743 166.7 800 161.3 857.2 160C914.3 158.7 971.7 161.3 1028.8 161.2C1086 161 1143 158 1171.5 156.5L1200 155L1200 201L1171.5 201C1143 201 1086 201 1028.8 201C971.7 201 914.3 201 857.2 201C800 201 743 201 685.8 201C628.7 201 571.3 201 514.2 201C457 201 400 201 342.8 201C285.7 201 228.3 201 171.2 201C114 201 57 201 28.5 201L0 201Z" fill="#c62368"></path></svg>