<svg id="visual" viewBox="0 0 1200 600" width="1200" height="600" xmlns="http://www.w3.org/2000/svg" xmlns:xlink="http://www.w3.org/1999/xlink" version="1.1"><path d="M0 373L28.5 384.2C57 395.3 114 417.7 171.2 419.8C228.3 422 285.7 404 342.8 400C400 396 457 406 514.2 412.5C571.3 419 628.7 422 685.8 421.2C743 420.3 800 415.7 857.2 417.2C914.3 418.7 971.7 426.3 1028.8 417.7C1086 409 1143 384 1171.5 371.5L1200 359L1200 601L1171.5 601C1143 601 1086 601 1028.8 601C971.7 601 914.3 601 857.2 601C800 601 743 601 685.8 601C628.7 601 571.3 601 514.2 601C457 601 400 601 342.8 601C285.7 601 228.3 601 171.2 601C114 601 57 601 28.5 601L0 601Z" fill="#fa7268"></path><path d="M0 455L28.5 452C57 449 114 443 171.2 438.2C228.3 433.3 285.7 429.7 342.8 424.8C400 420 457 414 514.2 422.7C571.3 431.3 628.7 454.7 685.8 460.2C743 465.7 800 453.3 857.2 443.5C914.3 433.7 971.7 426.3 1028.8 430.5C1086 434.7 1143 450.3 1171.5 458.2L1200 466L1200 601L1171.5 601C1143 601 1086 601 1028.8 601C971.7 601 914.3 601 857.2 601C800 601 743 601 685.8 601C628.7 601 571.3 601 514.2 601C457 601 400 601 342.8 601C285.7 601 228.3 601 171.2 601C114 601 57 601 28.5 601L0 601Z" fill="#ef5f67"></path><path d="M0 503L28.5 498.7C57 494.3 114 485.7 171.2 486.7C228.3 487.7 285.7 498.3 342.8 501.3C400 504.3 457 499.7 514.2 491.2C571.3 482.7 628.7 470.3 685.8 464.8C743 459.3 800 460.7 857.2 464.7C914.3 468.7 971.7 475.3 1028.8 482.2C1086 489 1143 496 1171.5 499.5L1200 503L1200 601L1171.5 601C1143 601 1086 601 1028.8 601C971.7 601 914.3 601 857.2 601C800 601 743 601 685.8 601C628.7 601 571.3 601 514.2 601C457 601 400 601 342.8 601C285.7 601 228.3 601 171.2 601C114 601 57 601 28.5 601L0 601Z" fill="#e34c67"></path><path d="M0 521L28.5 517.5C57 514 114 507 171.2 506.5C228.3 506 285.7 512 342.8 510.3C400 508.7 457 499.3 514.2 493.7C571.3 488 628.7 486 685.8 486.8C743 487.7 800 491.3 857.2 494.5C914.3 497.7 971.7 500.3 1028.8 500.8C1086 501.3 1143 499.7 1171.5 498.8L1200 498L1200 601L1171.5 601C1143 601 1086 601 1028.8 601C971.7 601 914.3 601 857.2 601C800 601 743 601 685.8 601C628.7 601 571.3 601 514.2 601C457 601 400 601 342.8 601C285.7 601 228.3 601 171.2 601C114 601 57 601 28.5 601L0 601Z" fill="#d53867"></path><path d="M0 548L28.5 550.5C57 553 114 558 171.2 561C228.3 564 285.7 565 342.8 562.3C400 559.7 457 553.3 514.2 548.5C571.3 543.7 628.7 540.3 685.8 538.8C743 537.3 800 537.7 857.2 537.5C914.3 537.3 971.7 536.7 1028.8 536.2C1086 535.7 1143 535.3 1171.5 535.2L1200 535L1200 601L1171.5 601C1143 601 1086 601 1028.8 601C971.7 601 914.3 601 857.2 601C800 601 743 601 685.8 601C628.7 601 571.3 601 514.2 601C457 601 400 601 342.8 601C285.7 601 228.3 601 171.2 601C114 601 57 601 28.5 601L0 601Z" fill="#c62368"></path></svg>