<svg id="visual" viewBox="0 0 1200 400" width="1200" height="400" xmlns="http://www.w3.org/2000/svg" xmlns:xlink="http://www.w3.org/1999/xlink" version="1.1"><path d="M0 290L171 290L171 245L343 245L343 190L514 190L514 293L686 293L686 194L857 194L857 214L1029 214L1029 225L1200 225L1200 262L1200 0L1200 0L1029 0L1029 0L857 0L857 0L686 0L686 0L514 0L514 0L343 0L343 0L171 0L171 0L0 0Z" fill="#fa7268"></path><path d="M0 169L171 169L171 165L343 165L343 199L514 199L514 154L686 154L686 170L857 170L857 186L1029 186L1029 124L1200 124L1200 148L1200 0L1200 0L1029 0L1029 0L857 0L857 0L686 0L686 0L514 0L514 0L343 0L343 0L171 0L171 0L0 0Z" fill="#e34c67"></path><path d="M0 54L171 54L171 45L343 45L343 94L514 94L514 76L686 76L686 56L857 56L857 67L1029 67L1029 118L1200 118L1200 101L1200 0L1200 0L1029 0L1029 0L857 0L857 0L686 0L686 0L514 0L514 0L343 0L343 0L171 0L171 0L0 0Z" fill="#c62368"></path></svg>