<svg id="visual" viewBox="0 0 1200 200" width="1200" height="200" xmlns="http://www.w3.org/2000/svg" xmlns:xlink="http://www.w3.org/1999/xlink" version="1.1"><path d="M0 143L28.5 142.3C57 141.7 114 140.3 171.2 140.7C228.3 141 285.7 143 342.8 139C400 135 457 125 514.2 118.2C571.3 111.3 628.7 107.7 685.8 109.2C743 110.7 800 117.3 857.2 123.2C914.3 129 971.7 134 1028.8 130.3C1086 126.7 1143 114.3 1171.5 108.2L1200 102L1200 0L1171.5 0C1143 0 1086 0 1028.8 0C971.7 0 914.3 0 857.2 0C800 0 743 0 685.8 0C628.7 0 571.3 0 514.2 0C457 0 400 0 342.8 0C285.7 0 228.3 0 171.2 0C114 0 57 0 28.5 0L0 0Z" fill="#fa7268"></path><path d="M0 109L28.5 113C57 117 114 125 171.2 124.3C228.3 123.7 285.7 114.3 342.8 113.8C400 113.3 457 121.7 514.2 126.7C571.3 131.7 628.7 133.3 685.8 128.7C743 124 800 113 857.2 108.8C914.3 104.7 971.7 107.3 1028.8 104C1086 100.7 1143 91.3 1171.5 86.7L1200 82L1200 0L1171.5 0C1143 0 1086 0 1028.8 0C971.7 0 914.3 0 857.2 0C800 0 743 0 685.8 0C628.7 0 571.3 0 514.2 0C457 0 400 0 342.8 0C285.7 0 228.3 0 171.2 0C114 0 57 0 28.5 0L0 0Z" fill="#ef5f67"></path><path d="M0 79L28.5 83.3C57 87.7 114 96.3 171.2 96.2C228.3 96 285.7 87 342.8 85.7C400 84.3 457 90.7 514.2 88.8C571.3 87 628.7 77 685.8 77C743 77 800 87 857.2 90.8C914.3 94.7 971.7 92.3 1028.8 89C1086 85.7 1143 81.3 1171.5 79.2L1200 77L1200 0L1171.5 0C1143 0 1086 0 1028.8 0C971.7 0 914.3 0 857.2 0C800 0 743 0 685.8 0C628.7 0 571.3 0 514.2 0C457 0 400 0 342.8 0C285.7 0 228.3 0 171.2 0C114 0 57 0 28.5 0L0 0Z" fill="#e34c67"></path><path d="M0 75L28.5 75.3C57 75.7 114 76.3 171.2 75C228.3 73.7 285.7 70.3 342.8 70C400 69.7 457 72.3 514.2 70C571.3 67.7 628.7 60.3 685.8 59C743 57.7 800 62.3 857.2 61.8C914.3 61.3 971.7 55.7 1028.8 56.7C1086 57.7 1143 65.3 1171.5 69.2L1200 73L1200 0L1171.5 0C1143 0 1086 0 1028.8 0C971.7 0 914.3 0 857.2 0C800 0 743 0 685.8 0C628.7 0 571.3 0 514.2 0C457 0 400 0 342.8 0C285.7 0 228.3 0 171.2 0C114 0 57 0 28.5 0L0 0Z" fill="#d53867"></path><path d="M0 23L28.5 26.7C57 30.3 114 37.7 171.2 36.8C228.3 36 285.7 27 342.8 24.3C400 21.7 457 25.3 514.2 29.8C571.3 34.3 628.7 39.7 685.8 39.3C743 39 800 33 857.2 30.2C914.3 27.3 971.7 27.7 1028.8 28.3C1086 29 1143 30 1171.5 30.5L1200 31L1200 0L1171.5 0C1143 0 1086 0 1028.8 0C971.7 0 914.3 0 857.2 0C800 0 743 0 685.8 0C628.7 0 571.3 0 514.2 0C457 0 400 0 342.8 0C285.7 0 228.3 0 171.2 0C114 0 57 0 28.5 0L0 0Z" fill="#c62368"></path></svg>